Coordinates
version=1
nRows=21
nColumns=22
inDegrees=yes

Units are S.I. units (second, meters, Newtons, ...)
If the header above contains a line with 'inDegrees', this indicates whether rotational values are in degrees (yes) or radians (no).

endheader
time	pelvis_tilt	pelvis_list	pelvis_rotation	pelvis_tx	pelvis_ty	pelvis_tz	hip_flexion_r	hip_adduction_r	hip_rotation_r	knee_angle_r	ankle_angle_r	subtalar_angle_r	hip_flexion_l	hip_adduction_l	hip_rotation_l	knee_angle_l	ankle_angle_l	subtalar_angle_l	lumbar_extension	lumbar_bending	lumbar_rotation
      2.97000000	      1.98346756	     -0.68273276	     16.26727921	     -0.32449941	      0.90815514	      0.67346468	     22.84728541	     -2.56012691	     -2.54354615	     -5.51263289	     -2.74795836	     12.72057950	     -9.20356995	      4.76764774	      2.42963759	    -17.99294257	     16.47837068	     -9.40949619	    -10.99244382	     -4.08744495	     -9.85401539
      2.98000000	      1.98202237	     -0.43945905	     17.08361176	     -0.31441965	      0.90604434	      0.67040946	     22.52906298	     -2.80729294	     -2.52015324	     -3.67153806	     -2.64644285	     13.62698886	     -9.90718808	      4.80140067	      2.85462983	    -18.19974905	     16.73008290	     -9.33699727	    -11.02174453	     -4.32066329	    -10.22984314
      2.99000000	      1.98286130	     -0.23824121	     17.84978222	     -0.30427851	      0.90399879	      0.66740015	     22.37706675	     -3.01679830	     -2.38182832	     -2.61552537	     -2.49042227	     14.35012933	    -10.57850333	      4.77914826	      3.29122549	    -18.45692329	     16.88295328	     -9.28032026	    -11.04787194	     -4.50849627	    -10.56229228
      3.00000000	      1.99056634	     -0.07185137	     18.54112831	     -0.29409862	      0.90204412	      0.66445335	     22.40501504	     -3.18450979	     -2.06842799	     -2.37674525	     -2.30482722	     14.73744787	    -11.21009888	      4.72358961	      3.75795626	    -18.78815801	     16.97381823	     -9.24028371	    -11.08303804	     -4.65910579	    -10.80231549
      3.01000000	      2.04603275	      0.00126063	     19.12975792	     -0.28373670	      0.90022447	      0.66160584	     22.52893249	     -3.21885880	     -1.51858582	     -2.81960742	     -2.10886029	     14.88488558	    -11.80307407	      4.55560569	      4.06731423	    -19.24235941	     16.99749201	     -9.22432726	    -11.12502351	     -4.69679232	    -10.95032444
      3.02000000	      2.17031652	      0.03164110	     19.63468813	     -0.27319695	      0.89863552	      0.65880077	     22.73913989	     -3.15625648	     -0.87773387	     -3.94866854	     -1.99744495	     14.93147176	    -12.44796138	      4.33778053	      4.41881784	    -19.71087264	     16.89425264	     -9.22290977	    -11.22016989	     -4.66719700	    -11.00452795
      3.03000000	      2.31345619	     -0.02150335	     20.04757060	     -0.26237862	      0.89717400	      0.65605069	     22.99428113	     -2.95220971	     -0.00160663	     -5.49472147	     -1.94717502	     14.73949511	    -13.04089628	      4.04490182	      4.69303230	    -20.27750290	     16.65185055	     -9.24264973	    -11.27393110	     -4.54297048	    -10.98356752
      3.04000000	      2.45436449	     -0.16316302	     20.35951536	     -0.25128486	      0.89579963	      0.65342527	     23.30899869	     -2.58579926	      0.99937482	     -7.34299885	     -2.10155698	     14.20655938	    -13.53490215	      3.68223427	      4.83793009	    -20.98581365	     16.36858150	     -9.26073578	    -11.26394833	     -4.34176943	    -10.85441013
      3.05000000	      2.62348952	     -0.41561435	     20.60641379	     -0.23984936	      0.89456989	      0.65082137	     23.59231753	     -2.03913363	      2.02734785	     -9.30765720	     -2.37872583	     13.65716202	    -13.96380722	      3.21457056	      4.87042116	    -21.81973359	     15.97525461	     -9.24660760	    -11.20023264	     -4.01562700	    -10.63901430
      3.06000000	      2.81897129	     -0.77957932	     20.80014772	     -0.22807466	      0.89350358	      0.64823631	     23.80878702	     -1.32098107	      3.03872914	    -11.24057855	     -2.78350414	     13.22955254	    -14.30920559	      2.63588984	      4.74028407	    -22.80312182	     15.42831849	     -9.21130004	    -11.07956200	     -3.56682553	    -10.36446131
      3.07000000	      2.97252788	     -1.22012591	     20.95314912	     -0.21606038	      0.89252753	      0.64565212	     24.05177120	     -0.50687491	      3.91456043	    -13.13451712	     -3.34962556	     12.54553502	    -14.50287361	      2.01193296	      4.50946204	    -23.94612162	     14.78489862	     -9.01590114	    -10.85392118	     -3.05987323	    -10.02634380
      3.08000000	      3.14849431	     -1.75318653	     21.09489481	     -0.20383327	      0.89174831	      0.64300707	     24.21381790	      0.40774333	      4.64201667	    -14.86286123	     -3.98494817	     12.08623389	    -14.56341979	      1.29074098	      4.12390950	    -25.31629446	     13.92158315	     -8.79938470	    -10.58916425	     -2.44613983	     -9.62526744
      3.09000000	      3.28590789	     -2.33034808	     21.24070212	     -0.19147817	      0.89109631	      0.64024236	     24.40506705	      1.32947710	      5.13929554	    -16.53120164	     -4.61105574	     11.57112173	    -14.44491980	      0.53617400	      3.61219368	    -26.89174124	     12.83323131	     -8.38760221	    -10.24511629	     -1.78955227	     -9.24796816
      3.10000000	      3.42505770	     -2.92829796	     21.40980048	     -0.17908211	      0.89064178	      0.63731237	     24.56371129	      2.22578162	      5.41401124	    -18.11039603	     -5.15916587	     11.17555421	    -14.16019392	     -0.24917208	      3.00145548	    -28.72005415	     11.45427646	     -7.91886805	     -9.88545129	     -1.09970553	     -8.85199230
      3.11000000	      3.54461254	     -3.50083594	     21.61572595	     -0.16671402	      0.89035900	      0.63418588	     24.72477396	      3.02766348	      5.42935044	    -19.67401069	     -5.49637404	     10.82127630	    -13.69784779	     -1.01869206	      2.34656899	    -30.78315287	      9.75290093	     -7.29766347	     -9.51293659	     -0.43520989	     -8.46532237
      3.12000000	      3.70040398	     -4.03052207	     21.86582955	     -0.15446120	      0.89032423	      0.63086041	     24.80162711	      3.73784751	      5.26657529	    -21.18392656	     -5.61687960	     10.56466482	    -13.09826822	     -1.79452062	      1.61242684	    -33.09011868	      7.74936669	     -6.67842704	     -9.20585334	      0.21205041	     -8.11478763
      3.13000000	      3.89761692	     -4.50743152	     22.17294538	     -0.14238612	      0.89053964	      0.62734227	     24.77031649	      4.34802811	      4.94445715	    -22.61946994	     -5.46590015	     10.35257779	    -12.36962617	     -2.57735464	      0.86008892	    -35.60922684	      5.45692419	     -6.04846528	     -8.97912432	      0.83018792	     -7.79254426
      3.14000000	      4.17445594	     -4.94038185	     22.54470048	     -0.13054206	      0.89105079	      0.62368791	     24.56328691	      4.89517177	      4.52655016	    -23.91399857	     -5.09984912	     10.18532075	    -11.54672736	     -3.40530644	      0.10663826	    -38.31012582	      2.94564528	     -5.52408687	     -8.87553461	      1.43807590	     -7.51168423
      3.15000000	      4.48506064	     -5.32141285	     22.98042243	     -0.11899424	      0.89176245	      0.61989817	     24.23356279	      5.35285531	      3.98246759	    -25.08122255	     -4.45819901	      9.96243329	    -10.59789045	     -4.23746130	     -0.54642000	    -41.15187543	      0.33580835	     -4.98155405	     -8.85232426	      2.00703143	     -7.20657865
      3.16000000	      4.89057764	     -5.68430143	     23.48787697	     -0.10777051	      0.89275748	      0.61601810	     23.69079555	      5.79583481	      3.38587504	    -26.02005758	     -3.76360383	      9.82132991	     -9.57501980	     -5.14193912	     -1.11614104	    -44.10560914	     -2.26452743	     -4.67790254	     -8.95988470	      2.59938850	     -6.90813224
      3.17000000	      5.31326578	     -6.03248845	     24.06315234	     -0.09691019	      0.89388361	      0.61210723	     23.03840283	      6.20708310	      2.73803795	    -26.76613336	     -2.97535804	      9.65722273	     -8.40420942	     -6.06850476	     -1.51310846	    -47.14860824	     -4.71540296	     -4.46147974	     -9.11379563	      3.17373118	     -6.61290496
